# xmcd
#
# Track frame offsets: 
#        150
#        14681
#        35607
#        59836
#        77558
#        97287
#        135990
#        154075
#        175865
#        190188
#        215308
#        229700
#        256450
#        281541
#        301673
#
# Disc length: 4096 seconds
#
# Revision: 0
# Processed by: cddbd v1.5.2PL0 Copyright (c) Steve Scherf et al.
# Submitted via: ExactAudioCopy v0.99pb3
#
DISCID=cd0ffe0f
DTITLE=Jean Jacques Milteau - Live, Hot´n Blues
DYEAR=2007
DGENRE=Blues
TTITLE0=Messin´With The Kid
TTITLE1=TMCP
TTITLE2=Wade InThe Water
TTITLE3=My Share
TTITLE4=Boogie Mix
TTITLE5=Same Kind of Pressure
TTITLE6=You´re So Fine
TTITLE7=Ray Charles Medley:What´d I Say-Hard Time-Georgia
TTITLE8=Demi´s Walk
TTITLE9=Junior Parker
TTITLE10=Make Some Changes
TTITLE11=At Last On Time
TTITLE12=Chain Of Fools
TTITLE13=Before You Accuse Me
TTITLE14=Boogie Mix Reprise
EXTD=
EXTT0=
EXTT1=
EXTT2=
EXTT3=
EXTT4=
EXTT5=
EXTT6=
EXTT7=
EXTT8=
EXTT9=
EXTT10=
EXTT11=
EXTT12=
EXTT13=
EXTT14=
PLAYORDER=
